<svg id="Layer_1" data-name="Layer 1" xmlns="http://www.w3.org/2000/svg" viewBox="0 0 27.7 63.2"><path d="M51.2,26.7a6,6,0,1,0,6,6A6,6,0,0,0,51.2,26.7Zm0,10h-1a5.16,5.16,0,0,0-1.1.2,3.5,3.5,0,0,1,4.2,0c-.6-.1-1.3-.1-2.1-.2Z" transform="translate(-36.3 -18.4)"/><path d="M58.6,54.8a17.06,17.06,0,0,1-3.8,1.3c-.2,0-.3.1-.5.1a2,2,0,0,1-.4-4,9.46,9.46,0,0,0,4.7-2.3,3.36,3.36,0,0,0,1.1-2.8,5.7,5.7,0,0,0-1.1-2.8v5c-.1.1-.2.3-.3.4a9.36,9.36,0,0,1-4.5,2.1,2.54,2.54,0,0,0,.6,5,1.27,1.27,0,0,0,.6-.1,16.27,16.27,0,0,0,3.7-1.3V78.3a3.25,3.25,0,1,1-6.5.1h0l-.7-19.8h-.1l-.7,19.8a3.25,3.25,0,0,1-6.5-.2V55.4a23.15,23.15,0,0,0,3.7,1.3,1.27,1.27,0,0,0,.6.1,2.48,2.48,0,0,0,.6-4.9,9.36,9.36,0,0,1-4.5-2.1,1.38,1.38,0,0,1-.3-.4V44.5a5.7,5.7,0,0,0-1.1,2.8,3.36,3.36,0,0,0,1.1,2.8A10.7,10.7,0,0,0,49,52.3a1.92,1.92,0,0,1,1.5,2.4,2,2,0,0,1-2,1.6.9.9,0,0,1-.5-.1,24.3,24.3,0,0,1-3.8-1.3c-4.9-2.4-5.2-6.2-5.1-8,.4-4.5,4.5-8.6,7.7-8.8h1a6.36,6.36,0,0,0,3.8,1.2,6.28,6.28,0,0,0,3.7-1.2l1,.1c3.1.2,7.3,4.3,7.7,8.8A8.92,8.92,0,0,1,58.6,54.8Z" transform="translate(-36.3 -18.4)"/><path d="M42.8,30l-6.5-3.6,4.9-.4-4.1-7.6,6,5.6.8-4.5L46.5,26c-1.2.5-.7.9-2.2-2.9L43.8,26l-2.9-2.7,1.9,3.6-3.2.2C43.9,29.5,43.4,28.9,42.8,30Z" transform="translate(-36.3 -18.4)"/></svg>